<svg width="144" height="25" fill="none" xmlns="http://www.w3.org/2000/svg"><rect x="91.196" y=".984" width="52.813" height="24" rx="12" fill="#038CFF"/><path d="M84.446 8.728a5.9 5.9 0 011.922.305c.594.188 1.023.383 1.289.586v2.063c-.328-.25-.774-.493-1.336-.727a4.468 4.468 0 00-1.734-.352c-.735 0-1.29.172-1.665.516-.359.344-.539.703-.539 1.078 0 .297.102.602.305.914.219.297.594.54 1.125.727l1.969.703c.766.265 1.336.648 1.71 1.148.376.5.563 1.086.563 1.758 0 .656-.187 1.258-.562 1.805-.36.547-.867.984-1.524 1.312-.64.313-1.382.469-2.226.469-.453 0-.93-.063-1.43-.188a8.694 8.694 0 01-1.312-.398 6.104 6.104 0 01-.868-.445v-2.063c.22.157.524.336.915.54.406.187.835.35 1.288.492.454.125.876.187 1.266.187.734 0 1.313-.164 1.734-.492.438-.328.657-.735.657-1.219 0-.375-.149-.672-.445-.89-.282-.22-.696-.43-1.243-.633l-1.734-.633c-.906-.344-1.508-.774-1.805-1.29-.297-.53-.445-1.132-.445-1.804 0-1 .375-1.828 1.125-2.484.75-.657 1.75-.985 3-.985zm-13.841.235v1.851c.25-.312.57-.625.96-.937a5.63 5.63 0 011.313-.82 3.821 3.821 0 011.547-.329c.797 0 1.523.18 2.18.54.656.343 1.18.874 1.57 1.593.39.703.586 1.594.586 2.672v7.149h-1.922l-.023-6.961c0-1.016-.227-1.79-.68-2.32-.438-.532-1.117-.798-2.04-.798-.624 0-1.25.235-1.874.704a8.222 8.222 0 00-1.617 1.593v7.781h-1.922V8.963h1.922zM64.78 3.338c.452 0 .827.164 1.124.492.313.312.469.68.469 1.101 0 .407-.156.774-.469 1.102a1.452 1.452 0 01-1.125.492c-.453 0-.836-.164-1.148-.492-.297-.328-.446-.695-.446-1.102 0-.421.149-.789.446-1.101a1.525 1.525 0 011.148-.492zm1.194 5.625v11.719h-1.922v-9.915h-1.851V8.963h3.773zm-11.38-.235c.672 0 1.352.164 2.04.493.702.312 1.304.75 1.804 1.312v-1.57h1.922v11.719h-1.922v-1.993c-.406.625-.961 1.172-1.664 1.64-.688.47-1.477.704-2.367.704-1 0-1.914-.25-2.743-.75-.828-.516-1.492-1.227-1.992-2.133-.484-.906-.726-1.953-.726-3.14 0-1.297.242-2.415.726-3.352.5-.938 1.18-1.656 2.04-2.156.859-.516 1.82-.774 2.882-.774zm.352 1.875c-.844 0-1.563.211-2.157.633a4.28 4.28 0 00-1.382 1.64 4.897 4.897 0 00-.47 2.134c0 .75.157 1.445.47 2.086a3.82 3.82 0 001.312 1.5c.578.375 1.242.562 1.992.562.72 0 1.36-.188 1.922-.563.563-.374 1.008-.89 1.336-1.546.328-.672.484-1.422.469-2.25l-.024-2.25c-.484-.61-1.007-1.086-1.57-1.43-.547-.344-1.18-.516-1.898-.516zm-23.545-1.64v1.5a6.45 6.45 0 011.43-1.172c.594-.375 1.289-.563 2.086-.563.844 0 1.633.203 2.367.61.734.39 1.297.984 1.688 1.781a10.035 10.035 0 011.78-1.688c.641-.468 1.391-.703 2.25-.703.798 0 1.54.18 2.227.54.703.343 1.266.874 1.688 1.593.437.703.656 1.594.656 2.672v7.149h-1.922l-.023-6.961c0-1.016-.266-1.79-.797-2.32-.516-.532-1.234-.798-2.156-.798-.672 0-1.258.211-1.758.633-.5.422-.977.914-1.43 1.477v7.969h-1.922l-.023-6.961c0-1.016-.266-1.79-.797-2.32-.516-.532-1.234-.798-2.156-.798-.64 0-1.227.188-1.758.563a7.796 7.796 0 00-1.43 1.36v8.155H29.48V8.963h1.922zm-9.763-.235c1.188 0 2.242.282 3.164.844a5.96 5.96 0 012.157 2.25c.53.938.796 1.961.796 3.07 0 1.11-.265 2.133-.796 3.07a6.011 6.011 0 01-2.157 2.227c-.922.563-1.976.844-3.164.844-1.187 0-2.242-.281-3.164-.844a6.2 6.2 0 01-2.18-2.226 6.267 6.267 0 01-.773-3.07c0-1.11.258-2.133.773-3.07a6.143 6.143 0 012.18-2.25c.922-.563 1.977-.845 3.164-.845zm0 1.875c-.828 0-1.555.204-2.18.61a4.022 4.022 0 00-1.453 1.57 4.558 4.558 0 00-.492 2.11c0 .75.164 1.453.492 2.109.344.64.829 1.164 1.454 1.57.625.39 1.351.586 2.18.586.843 0 1.57-.195 2.179-.586a4.056 4.056 0 001.43-1.57 4.48 4.48 0 00.515-2.11 4.4 4.4 0 00-.515-2.109 3.85 3.85 0 00-1.43-1.57c-.61-.406-1.336-.61-2.18-.61zm-15.294-6c1.765 0 3.258.36 4.476 1.078 1.235.72 2.172 1.696 2.813 2.93.656 1.219.984 2.602.984 4.149 0 1.546-.328 2.937-.984 4.171-.64 1.22-1.578 2.188-2.813 2.907-1.218.718-2.71 1.078-4.476 1.078a25.04 25.04 0 01-2.977-.164 48.87 48.87 0 01-2.789-.422V5.19a48.411 48.411 0 012.79-.423 24.998 24.998 0 012.976-.164zm0 1.993c-.563 0-1.164.023-1.805.07-.64.031-1.258.086-1.851.164v11.86c.593.062 1.21.116 1.851.163.64.047 1.242.07 1.805.07 1.265 0 2.351-.265 3.258-.796a5.498 5.498 0 002.109-2.203c.5-.938.75-1.992.75-3.164 0-1.172-.25-2.22-.75-3.141A5.306 5.306 0 009.6 7.416c-.906-.547-1.992-.82-3.257-.82z" fill="#082843"/><path d="M117.332 4.978c.906 0 1.773.172 2.601.516a4.655 4.655 0 012.039 1.547c.547.687.82 1.57.82 2.648 0 .969-.281 1.79-.843 2.461-.547.672-1.25 1.18-2.11 1.524a7.175 7.175 0 01-2.625.492c-.281 0-.656-.016-1.125-.047l7.313 6.563h-3.235l-6.75-6.563v6.563h-2.109V4.977h6.024zm-3.915 1.993v5.039c.516.14 1.079.25 1.688.328.609.078 1.211.117 1.805.117 1.187 0 2.101-.25 2.742-.75.656-.5.984-1.172.984-2.016 0-.875-.359-1.547-1.078-2.015-.703-.47-1.562-.703-2.578-.703h-3.563zm-9.123-1.993c.906 0 1.774.211 2.602.633a5.21 5.21 0 012.039 1.781c.547.766.82 1.688.82 2.766a4.55 4.55 0 01-.773 2.555c-.516.781-1.219 1.414-2.11 1.898-.875.469-1.851.703-2.929.703a9.729 9.729 0 01-2.204-.234c-.656-.172-1.187-.352-1.593-.54v6.142h-2.11V4.977h6.258zm-4.148 1.993v5.648c.422.172.968.336 1.64.492.688.14 1.383.211 2.086.211 1.188 0 2.102-.305 2.742-.914.657-.625.985-1.375.985-2.25 0-.672-.188-1.242-.563-1.71a3.442 3.442 0 00-1.429-1.079 4.599 4.599 0 00-1.899-.398h-3.562z" fill="#fff"/><circle cx="64.777" cy="4.927" r="1.607" fill="#038CFF"/><path d="M131.868 20.131a7.641 7.641 0 000-15.283 7.642 7.642 0 000 15.283zm-7.642-7.641h15.283" stroke="#fff" stroke-width="1.528" stroke-linecap="round" stroke-linejoin="round"/><path d="M131.868 4.848a11.692 11.692 0 013.056 7.642 11.692 11.692 0 01-3.056 7.641 11.688 11.688 0 01-3.057-7.641 11.688 11.688 0 013.057-7.642v0z" stroke="#fff" stroke-width="1.528" stroke-linecap="round" stroke-linejoin="round"/></svg>