<svg width="34" height="26" fill="none" xmlns="http://www.w3.org/2000/svg"><path d="M29.425 5.474c0-1.072-.883-1.941-1.971-1.941H15.338s-.528-.083-1.494-1.187C12.998 1.38 12.289 0 10.995 0H2.186C.978 0 0 .963 0 2.153v21.382C0 24.896 1.12 26 2.503 26H13.34l.128-1.435h15.958V5.475z" fill="#0077E5"/><path d="M2.69 26h25.362c.848 0 1.596-.553 1.832-1.356l4.043-13.736c.338-1.149-.538-2.297-1.752-2.297H11.61a2.562 2.562 0 00-2.46 1.806l-3.827 12.63s-.494 1.78-1.351 2.435C3.269 26.017 2.69 26 2.69 26z" fill="#038CFF"/></svg>