<svg width="40" height="22" fill="none" xmlns="http://www.w3.org/2000/svg"><rect width="40" height="21.667" rx="10.833" transform="matrix(-1 0 0 1 40 0)" fill="#F90"/><circle cx="8.333" cy="8.333" transform="matrix(-1 0 0 1 36.666 2.5)" fill="#fff" r="8.333"/><g clip-path="url(#clip0_81_4456)" stroke="#fff" stroke-width="1.333" stroke-linecap="round" stroke-linejoin="round"><path d="M11 15.333v1m3.18-2.32l.71.71m-7.78 0l.71-.71m7.68-3.18h1m-11 0h1m4.5 2.5a2.5 2.5 0 100-5 2.5 2.5 0 000 5zm3.18-5.68l.71-.71m-7.78 0l.71.71M11 5.333v1"/></g><defs><clipPath id="clip0_81_4456"><path fill="#fff" transform="translate(5 4.833)" d="M0 0h12v12H0z"/></clipPath></defs></svg>