<svg width="65" height="65" fill="none" xmlns="http://www.w3.org/2000/svg"><g clip-path="url(#clip0_272_12145)"><path d="M50.761.553h-36c-7.732 0-14 6.268-14 14v36c0 7.732 6.268 14 14 14h36c7.732 0 14-6.268 14-14v-36c0-7.732-6.268-14-14-14z" fill="#73AF00"/><path d="M58.886 32.552L32.76 6.428 6.637 32.552 32.76 58.676l26.125-26.124z" fill="#FFE15A"/><path d="M32.761 43.38c5.98 0 10.828-4.847 10.828-10.827 0-5.98-4.848-10.828-10.828-10.828-5.98 0-10.827 4.848-10.827 10.828 0 5.98 4.848 10.827 10.827 10.827z" fill="#41479B"/><path d="M23.47 27.014a10.8 10.8 0 00-1.166 2.771c6.003-.451 14.882 1.228 20.533 6.712.37-.942.613-1.945.704-2.993-5.836-4.912-13.903-6.658-20.07-6.49zm9.74 9.234l.288.864.911.007a.123.123 0 01.072.222l-.733.541.275.869a.123.123 0 01-.188.137l-.742-.53-.741.53a.123.123 0 01-.189-.137l.275-.869-.733-.541a.123.123 0 01.072-.222l.911-.007.289-.864a.123.123 0 01.233 0zm3.541 2.236l.124.372.392.003c.051 0 .072.065.031.095l-.315.233.118.374a.053.053 0 01-.08.06l-.32-.229-.32.228a.053.053 0 01-.08-.059l.118-.374-.316-.233a.053.053 0 01.032-.095l.392-.003.124-.372a.053.053 0 01.1 0zm-5.072-3.878l.124.372.392.003c.05 0 .072.065.03.095l-.315.233.119.374a.053.053 0 01-.082.059l-.319-.228-.319.228a.053.053 0 01-.08-.059l.117-.374-.315-.233a.053.053 0 01.03-.095l.393-.003.124-.372a.053.053 0 01.1 0zm-6.87-.451l.124.372.392.003c.05 0 .072.065.03.095l-.315.233.119.374a.053.053 0 01-.081.059l-.32-.228-.319.228a.053.053 0 01-.08-.059l.117-.374-.315-.233a.053.053 0 01.031-.095l.392-.003.124-.372a.053.053 0 01.1 0zm5.747 4.2l.124.373.392.003c.05 0 .072.065.031.095l-.316.233.119.374a.053.053 0 01-.081.059l-.32-.228-.319.228a.053.053 0 01-.08-.06l.117-.373-.315-.233a.053.053 0 01.031-.095l.392-.003.124-.373c.017-.048.085-.048.1 0zm-3.163-4.46l.102.304.32.003c.042 0 .06.053.026.078l-.258.19.097.306a.043.043 0 01-.067.048l-.26-.186-.261.186a.043.043 0 01-.067-.048l.097-.306-.258-.19a.043.043 0 01.025-.078l.321-.003.102-.304a.042.042 0 01.081 0zm9.634-6.28l.126.38.402.003c.051 0 .073.067.031.098l-.322.238.12.383c.016.05-.04.09-.082.06l-.327-.233-.326.233a.054.054 0 01-.083-.06l.12-.383-.322-.238a.054.054 0 01.032-.098l.4-.003.128-.38a.054.054 0 01.103 0zM25.25 32.034l.102.304.32.003c.042 0 .06.053.026.078l-.258.19.097.306a.043.043 0 01-.066.048l-.262-.186-.26.186a.043.043 0 01-.067-.048l.097-.306-.258-.19a.043.043 0 01.025-.078l.321-.003.102-.304a.043.043 0 01.081 0zm1.549 4.288l.154.46.485.004c.063 0 .09.08.039.118l-.391.289.147.463c.018.06-.05.11-.101.073l-.395-.283-.395.283a.065.065 0 01-.1-.073l.146-.463-.391-.289a.065.065 0 01.038-.118l.486-.004.154-.46c.02-.06.104-.06.124 0zm11.927 2.258l.096.29.306.003c.04 0 .056.05.024.074l-.246.181.093.292a.041.041 0 01-.064.046l-.248-.178-.249.178a.041.041 0 01-.063-.046l.092-.292-.246-.181a.041.041 0 01.024-.074l.306-.003.096-.29c.013-.037.066-.037.079 0zm1.069-2.212l.124.372.393.003c.05 0 .071.065.03.095l-.315.233.118.374a.053.053 0 01-.08.06l-.32-.229-.32.228a.053.053 0 01-.08-.059l.118-.374-.316-.233a.053.053 0 01.032-.095l.392-.003.124-.372a.053.053 0 01.1 0z" fill="#F5F5F5"/></g><defs><clipPath id="clip0_272_12145"><path fill="#fff" transform="translate(.761 .553)" d="M0 0h64v64H0z"/></clipPath></defs></svg>