<svg width="17" height="17" fill="none" xmlns="http://www.w3.org/2000/svg"><g clip-path="url(#clip0_221_9196)"><path d="M12.75 16.848h-9a3.5 3.5 0 01-3.5-3.5v-9a3.5 3.5 0 013.5-3.5h9a3.5 3.5 0 013.5 3.5v9a3.5 3.5 0 01-3.5 3.5z" fill="#41479B"/><path d="M16.25 13.348v-.769l-2.482-1.626h2.482v-.842H9.513v6.737h.842v-5.11l5.342 3.5c.19-.295.335-.62.43-.966m-15.642.34c.086.22.192.43.318.625l5.342-3.5v5.111h.842v-6.737H.25v.842h2.482L.25 12.58v.768c0 .135.008.267.023.398M.25 4.467v.65l2.482 1.626H.25v.842h6.737V.848h-.842v5.11L.803 2.46a3.48 3.48 0 00-.456 1.067m15.663-.455a3.495 3.495 0 00-.313-.613l-5.342 3.5V.849h-.842v6.736h6.737v-.842h-2.482l2.482-1.626v-.769c0-.14-.008-.277-.024-.412" fill="#F5F5F5"/><path d="M9.513.848H6.987v6.737H.25v2.526h6.737v6.737h2.526v-6.737h6.737V7.585H9.513V.848z" fill="#FF4B55"/><path d="M4.575 10.953L.273 13.746c.034.302.106.592.212.866l5.637-3.659H4.575zm6.44 0l5.112 3.319c.08-.295.123-.604.123-.924l-3.689-2.395h-1.546zm-5.712-4.21L.347 3.526a3.507 3.507 0 00-.097.822v.12l3.506 2.275h1.547zm6.599 0l4.324-2.807a3.48 3.48 0 00-.216-.864l-5.655 3.67h1.547z" fill="#FF4B55"/></g><defs><clipPath id="clip0_221_9196"><path fill="#fff" transform="translate(.25 .848)" d="M0 0h16v16H0z"/></clipPath></defs></svg>